<?xml version="1.0" standalone="no"?>
<!DOCTYPE svg PUBLIC "-//W3C//DTD SVG 20010904//EN"
"http://www.w3.org/TR/2001/REC-SVG-20010904/DTD/svg10.dtd">
<svg version="1.0" xmlns="http://www.w3.org/2000/svg"
width="512.000000pt" height="512.000000pt" viewBox="0 0 512.000000 512.000000"
preserveAspectRatio="xMidYMid meet">

<g transform="translate(0.000000,512.000000) scale(0.100000,-0.100000)"
fill="#000000" stroke="none">
<path d="M3354 4131 c-42 -26 -72 -70 -80 -119 -5 -34 7 -81 81 -302 l87 -261
-29 -37 c-16 -20 -42 -54 -59 -74 l-29 -38 -706 0 -706 0 -87 143 c-47 79 -86
147 -86 150 0 4 16 7 35 7 121 0 199 124 146 232 -11 24 -37 54 -58 68 l-37
25 -311 0 -312 0 -37 -29 c-49 -37 -80 -105 -71 -155 17 -92 82 -141 187 -141
l63 0 101 -167 c55 -93 248 -412 428 -711 180 -298 329 -549 333 -558 5 -13
-7 -14 -82 -12 l-88 3 -18 76 c-114 486 -593 825 -1098 778 -514 -48 -921
-498 -921 -1019 0 -486 348 -908 831 -1006 123 -25 343 -16 464 20 126 36 277
115 376 194 162 130 293 333 341 529 l23 93 250 0 c223 0 255 2 291 19 36 16
107 102 515 625 l474 605 27 -81 c15 -45 27 -82 25 -83 -1 -1 -41 -27 -89 -59
-230 -150 -388 -385 -443 -654 -19 -97 -22 -277 -6 -372 38 -216 144 -413 302
-565 129 -123 258 -198 434 -252 84 -25 102 -27 275 -27 217 0 278 13 444 92
341 164 561 491 583 867 35 603 -470 1113 -1072 1082 l-111 -6 -132 397 c-72
219 -132 401 -132 405 0 4 48 7 108 7 172 1 218 19 260 103 18 36 22 55 17 85
-8 52 -38 98 -77 122 -31 19 -51 20 -313 20 -257 0 -283 -2 -311 -19z m-294
-1166 c0 -2 -120 -158 -266 -345 l-266 -341 -200 332 c-110 182 -202 338 -205
345 -4 12 69 14 466 14 259 0 471 -2 471 -5z m1215 -301 c226 -60 401 -228
481 -459 25 -72 28 -93 28 -210 0 -114 -4 -140 -27 -210 -70 -211 -223 -370
-429 -447 -71 -27 -100 -32 -203 -35 -146 -6 -223 10 -345 69 -69 34 -102 59
-175 133 -74 73 -99 106 -133 175 -53 108 -72 190 -72 311 0 163 52 313 154
441 41 52 150 148 168 148 3 0 22 -48 42 -106 l36 -107 -54 -58 c-234 -252
-129 -655 200 -770 80 -27 206 -28 291 -1 237 75 380 328 318 565 -42 162
-162 290 -316 338 -33 10 -74 19 -89 19 -16 0 -32 4 -35 10 -3 5 -21 57 -40
116 l-34 107 87 -6 c48 -4 114 -14 147 -23z m-3034 -17 c207 -71 370 -231 439
-432 11 -32 20 -60 20 -62 0 -1 -53 -3 -118 -3 l-118 0 -27 56 c-77 157 -238
254 -422 254 -224 0 -403 -139 -460 -357 -69 -265 115 -541 389 -583 191 -30
396 72 485 240 l32 60 119 0 c139 0 134 10 65 -135 -114 -239 -351 -387 -620
-387 -193 0 -348 65 -486 202 -72 71 -93 101 -132 180 -101 207 -102 409 -2
615 88 183 246 311 460 371 34 9 89 13 175 11 103 -3 138 -8 201 -30z"/>
</g>
</svg>
